<svg viewBox="0 0 510.446 510.446" xmlns="http://www.w3.org/2000/svg" aria-hidden="true">
  <path d="m499.468 120.65-109.672-109.672c-14.639-14.637-38.456-14.637-53.093 0l-59.012 59.011c-14.637 14.638-14.637 38.456 0 53.093l23.478 23.478-154.609 154.61-23.478-23.478c-14.637-14.638-38.455-14.637-53.093 0l-59.011 59.011c-14.638 14.637-14.638 38.455 0 53.093L120.65 499.468c7.319 7.318 16.933 10.978 26.546 10.978s19.228-3.66 26.546-10.979l59.011-59.011c14.637-14.638 14.637-38.456 0-53.093l-23.478-23.478 154.609-154.609 23.478 23.478c7.319 7.32 16.931 10.978 26.546 10.978 9.613 0 19.229-3.66 26.547-10.978l59.011-59.011c14.639-14.637 14.639-38.455.002-53.093Zm-287.927 287.926c2.94 2.941 2.94 7.726 0 10.667l-59.011 59.011c-2.941 2.94-7.726 2.94-10.667 0L32.192 368.583c-2.941-2.941-2.941-7.726 0-10.667l59.011-59.011c1.471-1.471 3.402-2.206 5.333-2.206s3.863.735 5.333 2.205l109.672 109.672Zm-23.478-65.904-20.289-20.289 154.608-154.608 20.289 20.289-154.608 154.608ZM478.255 152.53l-59.011 59.011c-2.941 2.941-7.727 2.941-10.667 0L298.905 101.869c-2.94-2.941-2.94-7.726 0-10.667l59.011-59.011c1.471-1.47 3.402-2.206 5.333-2.206s3.863.735 5.333 2.206l109.671 109.672c2.942 2.941 2.942 7.726.002 10.667Z"/>
</svg>
