<svg viewBox="-23 -21 682 683" xmlns="http://www.w3.org/2000/svg" aria-hidden="true">
  <path fill="currentColor" fill-rule="evenodd" d="M544.386 93.008C484.511 33.063 404.883.036 320.05 0 145.246 0 2.98 142.262 2.91 317.113c-.023 55.895 14.578 110.457 42.332 158.551L.25 640l168.121-44.102c46.324 25.27 98.477 38.586 151.551 38.602h.133c174.785 0 317.066-142.273 317.133-317.133.035-84.742-32.922-164.418-92.801-224.36ZM320.05 580.94h-.109c-47.297-.02-93.683-12.73-134.16-36.742l-9.621-5.715-99.766 26.172 26.63-97.27-6.27-9.972c-26.387-41.969-40.32-90.477-40.297-140.281.055-145.332 118.305-263.57 263.7-263.57 70.406.023 136.59 27.476 186.355 77.3s77.156 116.051 77.133 186.485c-.063 145.343-118.305 263.593-263.594 263.593Zm144.586-197.417c-7.922-3.97-46.883-23.133-54.149-25.782-7.257-2.644-12.546-3.96-17.824 3.969-5.285 7.93-20.469 25.781-25.094 31.066-4.625 5.29-9.242 5.954-17.168 1.985-7.925-3.965-33.457-12.336-63.726-39.332-23.555-21.012-39.457-46.961-44.082-54.89-4.617-7.938-.04-11.813 3.476-16.172 8.579-10.652 17.168-21.82 19.809-27.105 2.644-5.29 1.32-9.918-.664-13.883-1.977-3.965-17.824-42.969-24.426-58.84-6.437-15.445-12.964-13.36-17.832-13.601-4.617-.23-9.902-.278-15.187-.278-5.282 0-13.868 1.98-21.133 9.918-7.262 7.934-27.73 27.102-27.73 66.106s28.394 76.683 32.355 81.972c3.96 5.29 55.878 85.328 135.367 119.649 18.906 8.172 33.664 13.043 45.175 16.695 18.985 6.031 36.254 5.18 49.91 3.14 15.227-2.277 46.88-19.171 53.489-37.679 6.601-18.512 6.601-34.375 4.617-37.684-1.976-3.304-7.261-5.285-15.183-9.254Z"/>
</svg>
